<?xml version="1.0" encoding="UTF-8"?>
<!DOCTYPE svg PUBLIC "-//W3C//DTD SVG 1.1//EN" "http://www.w3.org/Graphics/SVG/1.1/DTD/svg11.dtd">
<svg version="1.1" xmlns="http://www.w3.org/2000/svg" xmlns:xlink="http://www.w3.org/1999/xlink" x="0" y="0" width="408" height="124" viewBox="0, 0, 408, 124">
  <g id="Layer_1">
    <g id="Circles">
      <path d="M340,2 C373.137,2 400,28.863 400,62 C400,95.137 373.137,122 340,122 C306.863,122 280,95.137 280,62 C280,28.863 306.863,2 340,2 z M340,14 C313.49,14 292,35.49 292,62 C292,88.51 313.49,110 340,110 C366.51,110 388,88.51 388,62 C388,35.49 366.51,14 340,14 z" fill="#FFB200"/>
      <path d="M204,2 C237.137,2 264,28.863 264,62 C264,95.137 237.137,122 204,122 C170.863,122 144,95.137 144,62 C144,28.863 170.863,2 204,2 z M204,14 C177.49,14 156,35.49 156,62 C156,88.51 177.49,110 204,110 C230.51,110 252,88.51 252,62 C252,35.49 230.51,14 204,14 z" fill="#FFB200"/>
      <path d="M68,2.452 C101.137,2.452 128,29.315 128,62.452 C128,95.59 101.137,122.452 68,122.452 C34.863,122.452 8,95.59 8,62.452 C8,29.315 34.863,2.452 68,2.452 z M68,14.452 C41.49,14.452 20,35.943 20,62.452 C20,88.962 41.49,110.452 68,110.452 C94.51,110.452 116,88.962 116,62.452 C116,35.943 94.51,14.452 68,14.452 z" fill="#FFB200"/>
    </g>
  </g>
</svg>
