<?xml version="1.0" encoding="UTF-8"?>
<!DOCTYPE svg PUBLIC "-//W3C//DTD SVG 1.1//EN" "http://www.w3.org/Graphics/SVG/1.1/DTD/svg11.dtd">
<svg version="1.1" xmlns="http://www.w3.org/2000/svg" xmlns:xlink="http://www.w3.org/1999/xlink" x="0" y="0" width="408" height="124" viewBox="0, 0, 408, 124">
  <g id="Layer_1">
    <g id="Megaphones" display="none">
      <g>
        <path d="M343.838,2.095 C339.86,1.799 334.33,1.947 331.613,2.341 C328.848,2.785 323.706,4.116 320.116,5.349 C316.526,6.532 310.366,9.736 306.339,12.447 C302.361,15.159 296.928,20.039 294.26,23.293 C291.64,26.547 288.196,31.723 286.644,34.829 C285.091,37.935 283.151,43.111 282.326,46.266 C281.502,49.47 280.968,50.215 281.114,50.363 C281.259,50.511 284.121,49.82 287.469,48.884 L293.532,47.109 L295.764,43.505 C297.025,40.449 299.693,35.667 301.779,32.857 C303.817,30.096 308.037,25.906 311.093,23.589 C314.149,21.223 319.146,18.363 322.105,17.229 C325.113,16.096 330.255,14.764 333.505,14.321 C336.804,13.877 342.334,13.877 345.876,14.321 C349.368,14.764 354.656,16.046 357.664,17.18 C360.623,18.314 364.843,20.532 366.978,22.11 L370.956,25.068 L377.747,23.392 L384.587,21.716 L382.404,19.349 C381.191,18.067 377.019,14.863 373.139,12.201 C368.967,9.342 363.048,6.433 358.585,5.003 C354.462,3.672 347.864,2.391 343.838,2.095 z" fill="#838280"/>
        <path d="M387.546,25.166 C387.255,25.216 384.393,25.955 381.191,26.793 C377.99,27.631 375.225,28.42 375.079,28.519 C374.934,28.667 376.534,31.329 378.717,34.434 C380.852,37.589 383.52,42.618 384.684,45.674 C385.8,48.682 386.964,54.499 387.207,58.591 C387.498,62.633 387.255,68.401 386.625,71.408 C385.994,74.366 384.393,79.246 383.083,82.204 C381.725,85.162 379.057,89.5 377.214,91.818 C374.836,94.775 374.157,96.205 375.079,96.501 C375.758,96.747 378.717,97.635 381.677,98.473 L386.964,100.05 L388.711,97.783 C389.632,96.55 391.912,92.557 393.756,88.909 C395.551,85.261 397.831,78.852 398.704,74.711 C399.917,69.338 400.208,64.753 399.868,58.689 C399.577,54.055 398.413,47.301 397.297,43.801 C396.23,40.252 393.707,34.632 391.718,31.23 C389.729,27.828 387.886,25.117 387.546,25.166 z" fill="#838280"/>
        <path d="M370.713,32.216 C369.985,31.674 361.593,33.498 347.234,37.343 C334.961,40.695 315.217,45.97 303.38,49.125 L281.89,54.893 L280.726,57.752 C280.095,59.33 279.804,62.189 280.143,64.211 C280.434,66.182 281.065,68.154 281.453,68.549 C281.89,68.992 286.789,70.57 292.417,72.098 L302.604,74.908 L302.895,77.521 C303.186,79.789 304.059,80.43 309.153,82.204 C312.452,83.289 315.702,84.226 316.381,84.226 C317.06,84.226 317.642,83.141 317.642,81.761 C317.642,80.38 317.982,79.296 318.37,79.296 C318.758,79.246 330.74,82.254 344.954,85.951 L370.81,92.606 L372.896,90.684 C374.012,89.648 376.583,85.507 378.523,81.465 C381.677,74.958 382.113,73.133 382.453,65.147 C382.744,58.196 382.356,54.745 380.949,50.111 C379.882,46.808 377.456,41.632 375.467,38.625 C373.527,35.618 371.392,32.709 370.713,32.216 z" fill="#838280"/>
        <path d="M281.405,73.457 C281.162,73.457 281.55,74.711 282.278,77.521 C283.006,80.331 284.994,85.458 286.644,88.909 C288.293,92.36 291.786,97.783 294.406,100.938 C296.977,104.093 302.41,108.924 306.485,111.685 C310.948,114.741 316.915,117.699 321.814,119.277 C328.315,121.396 331.662,121.889 339.957,121.939 C348.35,121.939 351.551,121.495 358.1,119.326 C362.854,117.748 368.967,114.741 373.187,111.882 C377.068,109.22 381.046,106.213 381.968,105.128 L383.665,103.255 L377.99,101.628 C374.885,100.74 371.829,100.001 371.198,100.001 C370.616,100.001 367.996,101.332 365.474,103.008 C362.903,104.635 358.003,106.903 354.51,108.037 C350.436,109.368 345.487,110.058 340.442,110.107 C335.834,110.107 330.304,109.466 326.859,108.431 C323.658,107.494 318.71,105.374 315.847,103.698 C312.985,102.072 308.28,98.325 305.466,95.367 C302.604,92.409 298.917,87.331 297.316,84.028 C295.667,80.676 294.357,78.534 294.357,77.844 C294.357,77.203 291.543,75.922 288.099,75.034 C284.655,74.196 281.647,73.457 281.405,73.457 z" fill="#838280"/>
      </g>
      <g>
        <path d="M207.838,2.217 C203.86,1.922 198.33,2.07 195.613,2.464 C192.848,2.908 187.706,4.239 184.116,5.471 C180.526,6.654 174.366,9.859 170.339,12.57 C166.361,15.282 160.928,20.162 158.26,23.416 C155.64,26.669 152.196,31.846 150.644,34.951 C149.091,38.057 147.151,43.234 146.326,46.389 C145.502,49.593 144.968,50.338 145.114,50.485 C145.259,50.633 148.121,49.943 151.469,49.006 L157.532,47.232 L159.764,43.628 C161.025,40.571 163.693,35.79 165.779,32.98 C167.817,30.219 172.037,26.029 175.093,23.711 C178.149,21.345 183.146,18.486 186.105,17.352 C189.113,16.218 194.255,14.887 197.505,14.443 C200.804,14 206.334,14 209.876,14.443 C213.368,14.887 218.656,16.169 221.664,17.303 C224.623,18.437 228.843,20.655 230.978,22.233 L234.956,25.19 L241.747,23.514 L248.587,21.838 L246.404,19.472 C245.191,18.19 241.019,14.986 237.139,12.324 C232.967,9.464 227.048,6.556 222.585,5.126 C218.462,3.795 211.864,2.513 207.838,2.217 z" fill="#838280"/>
        <path d="M251.546,25.289 C251.255,25.338 248.393,26.078 245.191,26.916 C241.99,27.754 239.225,28.543 239.079,28.641 C238.934,28.789 240.534,31.451 242.717,34.557 C244.852,37.712 247.52,42.741 248.684,45.797 C249.8,48.804 250.964,54.621 251.207,58.713 C251.498,62.756 251.255,68.524 250.625,71.531 C249.994,74.489 248.393,79.369 247.083,82.327 C245.725,85.285 243.057,89.623 241.214,91.94 C238.836,94.898 238.157,96.328 239.079,96.623 C239.758,96.87 242.717,97.757 245.677,98.595 L250.964,100.173 L252.711,97.905 C253.632,96.673 255.912,92.68 257.756,89.032 C259.551,85.383 261.831,78.975 262.704,74.834 C263.917,69.46 264.208,64.875 263.868,58.812 C263.577,54.178 262.413,47.424 261.297,43.924 C260.23,40.374 257.707,34.754 255.718,31.353 C253.729,27.951 251.886,25.24 251.546,25.289 z" fill="#838280"/>
        <path d="M234.713,32.339 C233.985,31.796 225.593,33.62 211.234,37.466 C198.961,40.818 179.217,46.093 167.38,49.248 L145.89,55.016 L144.726,57.875 C144.095,59.453 143.804,62.312 144.143,64.333 C144.434,66.305 145.065,68.277 145.453,68.671 C145.89,69.115 150.789,70.693 156.417,72.221 L166.604,75.031 L166.895,77.644 C167.186,79.911 168.059,80.552 173.153,82.327 C176.452,83.412 179.702,84.348 180.381,84.348 C181.06,84.348 181.642,83.264 181.642,81.883 C181.642,80.503 181.982,79.418 182.37,79.418 C182.758,79.369 194.74,82.376 208.954,86.074 L234.81,92.729 L236.896,90.806 C238.012,89.771 240.583,85.63 242.523,81.588 C245.677,75.08 246.113,73.256 246.453,65.27 C246.744,58.319 246.356,54.868 244.949,50.234 C243.882,46.931 241.456,41.755 239.467,38.747 C237.527,35.74 235.392,32.832 234.713,32.339 z" fill="#838280"/>
        <path d="M145.405,73.579 C145.162,73.579 145.55,74.834 146.278,77.644 C147.006,80.454 148.994,85.581 150.644,89.032 C152.293,92.482 155.786,97.905 158.406,101.06 C160.977,104.215 166.41,109.047 170.485,111.807 C174.948,114.864 180.915,117.822 185.814,119.399 C192.315,121.519 195.662,122.012 203.957,122.061 C212.35,122.061 215.551,121.618 222.1,119.449 C226.854,117.871 232.967,114.864 237.187,112.005 C241.068,109.342 245.046,106.335 245.968,105.251 L247.665,103.377 L241.99,101.75 C238.885,100.863 235.829,100.124 235.198,100.124 C234.616,100.124 231.996,101.455 229.474,103.131 C226.903,104.758 222.003,107.025 218.51,108.159 C214.436,109.49 209.487,110.18 204.442,110.23 C199.834,110.23 194.304,109.589 190.859,108.554 C187.658,107.617 182.71,105.497 179.847,103.821 C176.985,102.194 172.28,98.448 169.466,95.49 C166.604,92.532 162.917,87.454 161.316,84.151 C159.667,80.799 158.357,78.657 158.357,77.967 C158.357,77.326 155.543,76.044 152.099,75.157 C148.655,74.319 145.647,73.579 145.405,73.579 z" fill="#838280"/>
      </g>
      <g>
        <path d="M71.838,2.217 C67.86,1.922 62.33,2.07 59.613,2.464 C56.848,2.908 51.706,4.239 48.116,5.471 C44.526,6.654 38.366,9.859 34.339,12.57 C30.361,15.282 24.928,20.162 22.26,23.416 C19.64,26.669 16.196,31.846 14.644,34.951 C13.091,38.057 11.151,43.234 10.326,46.389 C9.502,49.593 8.968,50.338 9.114,50.485 C9.259,50.633 12.121,49.943 15.469,49.006 L21.532,47.232 L23.764,43.628 C25.025,40.571 27.693,35.79 29.779,32.98 C31.817,30.219 36.037,26.029 39.093,23.711 C42.149,21.345 47.146,18.486 50.105,17.352 C53.113,16.218 58.255,14.887 61.505,14.443 C64.804,14 70.334,14 73.876,14.443 C77.368,14.887 82.656,16.169 85.664,17.303 C88.623,18.437 92.843,20.655 94.978,22.233 L98.956,25.19 L105.747,23.514 L112.587,21.838 L110.404,19.472 C109.191,18.19 105.019,14.986 101.139,12.324 C96.967,9.464 91.048,6.556 86.585,5.126 C82.462,3.795 75.864,2.513 71.838,2.217 z" fill="#838280"/>
        <path d="M115.546,25.289 C115.255,25.338 112.393,26.078 109.191,26.916 C105.99,27.754 103.225,28.543 103.079,28.641 C102.934,28.789 104.534,31.451 106.717,34.557 C108.852,37.712 111.52,42.741 112.684,45.797 C113.8,48.804 114.964,54.621 115.207,58.713 C115.498,62.756 115.255,68.524 114.625,71.531 C113.994,74.489 112.393,79.369 111.083,82.327 C109.725,85.285 107.057,89.623 105.214,91.94 C102.836,94.898 102.157,96.328 103.079,96.623 C103.758,96.87 106.717,97.757 109.677,98.595 L114.964,100.173 L116.711,97.905 C117.632,96.673 119.912,92.68 121.756,89.032 C123.551,85.383 125.831,78.975 126.704,74.834 C127.917,69.46 128.208,64.875 127.868,58.812 C127.577,54.178 126.413,47.424 125.297,43.924 C124.23,40.374 121.707,34.754 119.718,31.353 C117.729,27.951 115.886,25.24 115.546,25.289 z" fill="#838280"/>
        <path d="M98.713,32.339 C97.985,31.796 89.593,33.62 75.234,37.466 C62.961,40.818 43.217,46.093 31.38,49.248 L9.89,55.016 L8.726,57.875 C8.095,59.453 7.804,62.312 8.143,64.333 C8.434,66.305 9.065,68.277 9.453,68.671 C9.89,69.115 14.789,70.693 20.417,72.221 L30.604,75.031 L30.895,77.644 C31.186,79.911 32.059,80.552 37.153,82.327 C40.452,83.412 43.702,84.348 44.381,84.348 C45.06,84.348 45.642,83.264 45.642,81.883 C45.642,80.503 45.982,79.418 46.37,79.418 C46.758,79.369 58.74,82.376 72.954,86.074 L98.81,92.729 L100.896,90.806 C102.012,89.771 104.583,85.63 106.523,81.588 C109.677,75.08 110.113,73.256 110.453,65.27 C110.744,58.319 110.356,54.868 108.949,50.234 C107.882,46.931 105.456,41.755 103.467,38.747 C101.527,35.74 99.392,32.832 98.713,32.339 z" fill="#838280"/>
        <path d="M9.405,73.579 C9.162,73.579 9.55,74.834 10.278,77.644 C11.006,80.454 12.994,85.581 14.644,89.032 C16.293,92.482 19.786,97.905 22.406,101.06 C24.977,104.215 30.41,109.047 34.485,111.807 C38.948,114.864 44.915,117.822 49.814,119.399 C56.315,121.519 59.662,122.012 67.957,122.061 C76.35,122.061 79.551,121.618 86.1,119.449 C90.854,117.871 96.967,114.864 101.187,112.004 C105.068,109.342 109.046,106.335 109.968,105.251 L111.665,103.377 L105.99,101.75 C102.885,100.863 99.829,100.124 99.198,100.124 C98.616,100.124 95.996,101.455 93.474,103.131 C90.903,104.758 86.003,107.025 82.51,108.159 C78.436,109.49 73.487,110.18 68.442,110.23 C63.834,110.23 58.304,109.589 54.859,108.554 C51.658,107.617 46.709,105.497 43.847,103.821 C40.985,102.194 36.28,98.447 33.466,95.49 C30.604,92.532 26.917,87.454 25.316,84.151 C23.667,80.799 22.357,78.657 22.357,77.967 C22.357,77.326 19.543,76.044 16.099,75.157 C12.655,74.319 9.647,73.579 9.405,73.579 z" fill="#838280"/>
      </g>
    </g>
    <g id="Logo" display="none">
      <path d="M342.285,2.005 C336.596,1.711 331.102,2.102 327.066,3.032 C323.614,3.815 317.05,6.31 312.528,8.511 C306.402,11.593 302.609,14.381 297.455,19.567 C293.079,23.97 289.287,29.009 287.002,33.363 C285.057,37.129 282.674,42.853 281.75,46.082 C280.583,49.996 280,55.181 280,61.736 C280,68.292 280.583,73.477 281.75,77.391 C282.674,80.62 285.057,86.343 287.002,90.11 C289.287,94.464 293.079,99.503 297.455,103.906 C302.609,109.14 306.402,111.88 312.528,114.962 C317.05,117.163 324.052,119.707 328.039,120.539 C332.998,121.615 337.909,121.909 343.258,121.566 C347.877,121.273 354.295,120.001 358.671,118.533 C362.755,117.114 368.59,114.424 371.653,112.516 C374.668,110.559 379.433,106.743 382.253,104.004 L387.358,98.965 L387.358,110.461 L387.358,121.909 L393.679,121.909 L400,121.909 L400,88.398 C399.951,61.785 399.66,53.567 398.493,48.528 C397.666,45.055 395.527,39.086 393.679,35.319 C391.831,31.357 387.893,25.633 384.489,21.915 C381.28,18.393 376.126,13.794 373.063,11.74 C370,9.685 363.825,6.75 359.352,5.184 C353.371,3.13 348.801,2.249 342.285,2.005 z M339.417,14.381 C342.188,14.332 346.807,14.773 349.627,15.36 C352.447,15.947 357.65,17.806 361.102,19.42 C365.186,21.377 369.514,24.557 373.355,28.373 C377.002,32.091 380.454,36.836 382.447,40.896 C384.441,44.957 386.045,50.191 386.677,54.741 C387.455,60.073 387.407,64.036 386.629,69.123 C385.997,73.184 384.198,78.908 382.399,82.674 C380.454,86.637 376.953,91.431 373.355,95.1 C369.562,98.867 365.089,102.145 361.005,104.102 C357.504,105.814 351.475,107.722 347.634,108.407 C342.431,109.287 338.882,109.336 333.29,108.504 C328.379,107.771 323.517,106.254 318.655,103.808 C314.182,101.607 309.368,98.182 306.159,95.002 C302.998,91.774 299.643,86.979 297.504,82.577 C295.413,78.223 293.614,72.744 292.982,68.536 C292.253,63.644 292.253,59.633 292.982,54.839 C293.614,50.827 295.462,45.103 297.504,40.896 C299.643,36.493 302.998,31.699 306.159,28.471 C309.319,25.291 314.182,21.866 318.509,19.714 C322.399,17.806 327.601,15.8 329.984,15.36 C332.415,14.871 336.645,14.43 339.417,14.381 z" fill="#FFB200"/>
      <path d="M203.463,1.789 C200.241,1.838 194.773,2.472 191.258,3.205 C187.792,3.938 181.396,6.331 177.1,8.431 C172.804,10.58 166.799,14.536 163.723,17.271 C160.697,20.006 156.205,25.231 153.764,28.845 C151.372,32.508 148.199,38.955 146.685,43.253 C144.391,49.895 144,52.581 144,61.763 C144,70.945 144.391,73.631 146.685,80.273 C148.199,84.571 151.372,91.017 153.764,94.68 C156.205,98.294 160.697,103.52 163.723,106.255 C166.799,108.99 172.804,112.946 177.1,115.095 C181.396,117.195 187.987,119.588 191.746,120.37 C195.505,121.151 201.022,121.786 203.951,121.786 C206.929,121.786 212.397,121.151 216.107,120.37 C219.867,119.588 226.018,117.391 229.777,115.535 C233.585,113.679 237.881,111.383 239.346,110.455 L242.031,108.697 L248.329,114.949 L254.627,121.2 L259.069,117.537 C261.51,115.535 263.512,113.581 263.512,113.239 C263.512,112.897 260.68,109.723 257.214,106.255 L250.916,99.857 L254.773,94.046 C256.872,90.822 259.801,84.668 261.315,80.371 C263.609,73.68 264,70.945 264,61.763 C264,52.581 263.609,49.846 261.315,43.204 C259.85,38.906 256.872,32.655 254.724,29.383 C252.527,26.062 248.133,20.934 244.911,17.954 C241.494,14.731 235.782,10.873 231.046,8.577 C226.604,6.38 219.915,3.938 216.156,3.156 C212.397,2.375 206.685,1.74 203.463,1.789 z M203.024,14.487 C205.513,14.438 210.103,14.878 213.276,15.464 C216.498,16.001 221.966,17.906 225.432,19.615 C229.338,21.52 234.073,24.987 237.784,28.65 C241.592,32.46 244.814,36.904 246.718,40.86 C248.329,44.327 250.135,49.456 250.721,52.288 C251.307,55.121 251.795,59.419 251.795,61.763 C251.795,64.107 251.307,68.405 250.721,71.238 C250.135,74.07 248.378,79.101 246.815,82.373 C245.253,85.694 243.398,88.869 242.617,89.552 C241.445,90.48 239.346,88.869 230.802,80.712 L220.452,70.7 L216.352,74.754 L212.299,78.857 L222.503,89.113 C228.996,95.657 232.365,99.662 231.73,100.248 C231.242,100.785 228.068,102.543 224.797,104.204 C221.478,105.816 215.619,107.72 211.86,108.355 C206.685,109.234 203.121,109.283 197.653,108.453 C193.015,107.818 187.596,106.109 182.958,103.911 C178.125,101.616 173.731,98.588 170.216,95.022 C166.701,91.555 163.626,87.11 161.38,82.422 C159.525,78.466 157.474,72.263 156.889,68.649 C156.107,63.863 156.059,60.2 156.84,55.267 C157.426,51.409 159.378,45.353 161.38,41.153 C163.626,36.416 166.701,32.02 170.216,28.504 C173.683,24.987 178.125,21.91 182.763,19.713 C186.669,17.857 191.844,15.903 194.236,15.464 C196.628,14.975 200.583,14.536 203.024,14.487 z" fill="#FFB200"/>
      <g>
        <path d="M71.838,2.37 C67.86,2.074 62.33,2.222 59.613,2.617 C56.848,3.06 51.706,4.391 48.116,5.624 C44.526,6.807 38.366,10.011 34.339,12.723 C30.361,15.434 24.928,20.315 22.26,23.568 C19.64,26.822 16.196,31.998 14.644,35.104 C13.091,38.21 11.151,43.386 10.326,46.541 C9.502,49.746 8.968,50.49 9.114,50.638 C9.259,50.786 12.121,50.096 15.469,49.159 L21.532,47.384 L23.764,43.781 C25.025,40.724 27.693,35.942 29.779,33.132 C31.817,30.371 36.037,26.181 39.093,23.864 C42.149,21.498 47.146,18.639 50.105,17.505 C53.113,16.371 58.255,15.04 61.505,14.596 C64.804,14.152 70.334,14.152 73.876,14.596 C77.368,15.04 82.656,16.322 85.664,17.455 C88.623,18.589 92.843,20.808 94.978,22.385 L98.956,25.343 L105.747,23.667 L112.587,21.991 L110.404,19.624 C109.191,18.343 105.019,15.138 101.139,12.476 C96.967,9.617 91.048,6.708 86.585,5.279 C82.462,3.948 75.864,2.666 71.838,2.37 z" fill="#FFB200"/>
        <path d="M115.546,25.442 C115.255,25.491 112.393,26.23 109.191,27.068 C105.99,27.907 103.225,28.695 103.079,28.794 C102.934,28.942 104.534,31.604 106.717,34.71 C108.852,37.865 111.52,42.893 112.684,45.95 C113.8,48.957 114.964,54.774 115.207,58.866 C115.498,62.908 115.255,68.676 114.625,71.683 C113.994,74.641 112.393,79.522 111.083,82.48 C109.725,85.438 107.057,89.776 105.214,92.093 C102.836,95.051 102.157,96.48 103.079,96.776 C103.758,97.023 106.717,97.91 109.677,98.748 L114.964,100.326 L116.711,98.058 C117.632,96.825 119.912,92.832 121.756,89.184 C123.551,85.536 125.831,79.127 126.704,74.986 C127.917,69.613 128.208,65.028 127.868,58.964 C127.577,54.33 126.413,47.577 125.297,44.076 C124.23,40.527 121.707,34.907 119.718,31.505 C117.729,28.104 115.886,25.392 115.546,25.442 z" fill="#FFB200"/>
        <path d="M98.713,32.491 C97.985,31.949 89.593,33.773 75.234,37.618 C62.961,40.971 43.217,46.245 31.38,49.401 L9.89,55.168 L8.726,58.028 C8.095,59.605 7.804,62.465 8.143,64.486 C8.434,66.458 9.065,68.43 9.453,68.824 C9.89,69.268 14.789,70.845 20.417,72.374 L30.604,75.184 L30.895,77.796 C31.186,80.064 32.059,80.705 37.153,82.48 C40.452,83.564 43.702,84.501 44.381,84.501 C45.06,84.501 45.642,83.416 45.642,82.036 C45.642,80.656 45.982,79.571 46.37,79.571 C46.758,79.522 58.74,82.529 72.954,86.226 L98.81,92.882 L100.896,90.959 C102.012,89.924 104.583,85.783 106.523,81.74 C109.677,75.233 110.113,73.409 110.453,65.422 C110.744,58.471 110.356,55.021 108.949,50.387 C107.882,47.084 105.456,41.907 103.467,38.9 C101.527,35.893 99.392,32.984 98.713,32.491 z" fill="#FFB200"/>
        <path d="M9.405,73.732 C9.162,73.732 9.55,74.986 10.278,77.796 C11.006,80.606 12.994,85.733 14.644,89.184 C16.293,92.635 19.786,98.058 22.406,101.213 C24.977,104.368 30.41,109.199 34.485,111.96 C38.948,115.016 44.915,117.974 49.814,119.552 C56.315,121.672 59.662,122.165 67.957,122.214 C76.35,122.214 79.551,121.77 86.1,119.601 C90.854,118.024 96.967,115.016 101.187,112.157 C105.068,109.495 109.046,106.488 109.968,105.403 L111.665,103.53 L105.99,101.903 C102.885,101.016 99.829,100.276 99.198,100.276 C98.616,100.276 95.996,101.607 93.474,103.283 C90.903,104.91 86.003,107.178 82.51,108.312 C78.436,109.643 73.487,110.333 68.442,110.382 C63.834,110.382 58.304,109.742 54.859,108.706 C51.658,107.77 46.709,105.65 43.847,103.974 C40.985,102.347 36.28,98.6 33.466,95.642 C30.604,92.684 26.917,87.607 25.316,84.304 C23.667,80.951 22.357,78.81 22.357,78.119 C22.357,77.479 19.543,76.197 16.099,75.309 C12.655,74.471 9.647,73.732 9.405,73.732 z" fill="#FFB200"/>
      </g>
    </g>
    <g id="Circles">
      <path d="M340,2 C373.137,2 400,28.863 400,62 C400,95.137 373.137,122 340,122 C306.863,122 280,95.137 280,62 C280,28.863 306.863,2 340,2 z M340,14 C313.49,14 292,35.49 292,62 C292,88.51 313.49,110 340,110 C366.51,110 388,88.51 388,62 C388,35.49 366.51,14 340,14 z" fill="#FFB200"/>
      <path d="M204,2 C237.137,2 264,28.863 264,62 C264,95.137 237.137,122 204,122 C170.863,122 144,95.137 144,62 C144,28.863 170.863,2 204,2 z M204,14 C177.49,14 156,35.49 156,62 C156,88.51 177.49,110 204,110 C230.51,110 252,88.51 252,62 C252,35.49 230.51,14 204,14 z" fill="#FFB200"/>
      <path d="M68,2.452 C101.137,2.452 128,29.315 128,62.452 C128,95.59 101.137,122.452 68,122.452 C34.863,122.452 8,95.59 8,62.452 C8,29.315 34.863,2.452 68,2.452 z M68,14.452 C41.49,14.452 20,35.943 20,62.452 C20,88.962 41.49,110.452 68,110.452 C94.51,110.452 116,88.962 116,62.452 C116,35.943 94.51,14.452 68,14.452 z" fill="#FFB200"/>
    </g>
  </g>
</svg>
