<?xml version="1.0" encoding="UTF-8"?>
<!DOCTYPE svg PUBLIC "-//W3C//DTD SVG 1.1//EN" "http://www.w3.org/Graphics/SVG/1.1/DTD/svg11.dtd">
<svg version="1.1" xmlns="http://www.w3.org/2000/svg" xmlns:xlink="http://www.w3.org/1999/xlink" x="0" y="0" width="408" height="124" viewBox="0, 0, 408, 124">
  <g id="Layer_1">
    <g id="Logo">
      <path d="M342.285,2.005 C336.596,1.711 331.102,2.102 327.066,3.032 C323.614,3.815 317.05,6.31 312.528,8.511 C306.402,11.593 302.609,14.381 297.455,19.567 C293.079,23.97 289.287,29.009 287.002,33.363 C285.057,37.129 282.674,42.853 281.75,46.082 C280.583,49.996 280,55.181 280,61.736 C280,68.292 280.583,73.477 281.75,77.391 C282.674,80.62 285.057,86.343 287.002,90.11 C289.287,94.464 293.079,99.503 297.455,103.906 C302.609,109.14 306.402,111.88 312.528,114.962 C317.05,117.163 324.052,119.707 328.039,120.539 C332.998,121.615 337.909,121.909 343.258,121.566 C347.877,121.273 354.295,120.001 358.671,118.533 C362.755,117.114 368.59,114.424 371.653,112.516 C374.668,110.559 379.433,106.743 382.253,104.004 L387.358,98.965 L387.358,110.461 L387.358,121.909 L393.679,121.909 L400,121.909 L400,88.398 C399.951,61.785 399.66,53.567 398.493,48.528 C397.666,45.055 395.527,39.086 393.679,35.319 C391.831,31.357 387.893,25.633 384.489,21.915 C381.28,18.393 376.126,13.794 373.063,11.74 C370,9.685 363.825,6.75 359.352,5.184 C353.371,3.13 348.801,2.249 342.285,2.005 z M339.417,14.381 C342.188,14.332 346.807,14.773 349.627,15.36 C352.447,15.947 357.65,17.806 361.102,19.42 C365.186,21.377 369.514,24.557 373.355,28.373 C377.002,32.091 380.454,36.836 382.447,40.896 C384.441,44.957 386.045,50.191 386.677,54.741 C387.455,60.073 387.407,64.036 386.629,69.123 C385.997,73.184 384.198,78.908 382.399,82.674 C380.454,86.637 376.953,91.431 373.355,95.1 C369.562,98.867 365.089,102.145 361.005,104.102 C357.504,105.814 351.475,107.722 347.634,108.407 C342.431,109.287 338.882,109.336 333.29,108.504 C328.379,107.771 323.517,106.254 318.655,103.808 C314.182,101.607 309.368,98.182 306.159,95.002 C302.998,91.774 299.643,86.979 297.504,82.577 C295.413,78.223 293.614,72.744 292.982,68.536 C292.253,63.644 292.253,59.633 292.982,54.839 C293.614,50.827 295.462,45.103 297.504,40.896 C299.643,36.493 302.998,31.699 306.159,28.471 C309.319,25.291 314.182,21.866 318.509,19.714 C322.399,17.806 327.601,15.8 329.984,15.36 C332.415,14.871 336.645,14.43 339.417,14.381 z" fill="#FFB200"/>
      <path d="M203.463,1.789 C200.241,1.838 194.773,2.472 191.258,3.205 C187.792,3.938 181.396,6.331 177.1,8.431 C172.804,10.58 166.799,14.536 163.723,17.271 C160.697,20.006 156.205,25.231 153.764,28.845 C151.372,32.508 148.199,38.955 146.685,43.253 C144.391,49.895 144,52.581 144,61.763 C144,70.945 144.391,73.631 146.685,80.273 C148.199,84.571 151.372,91.017 153.764,94.68 C156.205,98.294 160.697,103.52 163.723,106.255 C166.799,108.99 172.804,112.946 177.1,115.095 C181.396,117.195 187.987,119.588 191.746,120.37 C195.505,121.151 201.022,121.786 203.951,121.786 C206.929,121.786 212.397,121.151 216.107,120.37 C219.867,119.588 226.018,117.391 229.777,115.535 C233.585,113.679 237.881,111.383 239.346,110.455 L242.031,108.697 L248.329,114.949 L254.627,121.2 L259.069,117.537 C261.51,115.535 263.512,113.581 263.512,113.239 C263.512,112.897 260.68,109.723 257.214,106.255 L250.916,99.857 L254.773,94.046 C256.872,90.822 259.801,84.668 261.315,80.371 C263.609,73.68 264,70.945 264,61.763 C264,52.581 263.609,49.846 261.315,43.204 C259.85,38.906 256.872,32.655 254.724,29.383 C252.527,26.062 248.133,20.934 244.911,17.954 C241.494,14.731 235.782,10.873 231.046,8.577 C226.604,6.38 219.915,3.938 216.156,3.156 C212.397,2.375 206.685,1.74 203.463,1.789 z M203.024,14.487 C205.513,14.438 210.103,14.878 213.276,15.464 C216.498,16.001 221.966,17.906 225.432,19.615 C229.338,21.52 234.073,24.987 237.784,28.65 C241.592,32.46 244.814,36.904 246.718,40.86 C248.329,44.327 250.135,49.456 250.721,52.288 C251.307,55.121 251.795,59.419 251.795,61.763 C251.795,64.107 251.307,68.405 250.721,71.238 C250.135,74.07 248.378,79.101 246.815,82.373 C245.253,85.694 243.398,88.869 242.617,89.552 C241.445,90.48 239.346,88.869 230.802,80.712 L220.452,70.7 L216.352,74.754 L212.299,78.857 L222.503,89.113 C228.996,95.657 232.365,99.662 231.73,100.248 C231.242,100.785 228.068,102.543 224.797,104.204 C221.478,105.816 215.619,107.72 211.86,108.355 C206.685,109.234 203.121,109.283 197.653,108.453 C193.015,107.818 187.596,106.109 182.958,103.911 C178.125,101.616 173.731,98.588 170.216,95.022 C166.701,91.555 163.626,87.11 161.38,82.422 C159.525,78.466 157.474,72.263 156.889,68.649 C156.107,63.863 156.059,60.2 156.84,55.267 C157.426,51.409 159.378,45.353 161.38,41.153 C163.626,36.416 166.701,32.02 170.216,28.504 C173.683,24.987 178.125,21.91 182.763,19.713 C186.669,17.857 191.844,15.903 194.236,15.464 C196.628,14.975 200.583,14.536 203.024,14.487 z" fill="#FFB200"/>
      <g>
        <path d="M71.838,2.37 C67.86,2.074 62.33,2.222 59.613,2.617 C56.848,3.06 51.706,4.391 48.116,5.624 C44.526,6.807 38.366,10.011 34.339,12.723 C30.361,15.434 24.928,20.315 22.26,23.568 C19.64,26.822 16.196,31.998 14.644,35.104 C13.091,38.21 11.151,43.386 10.326,46.541 C9.502,49.746 8.968,50.49 9.114,50.638 C9.259,50.786 12.121,50.096 15.469,49.159 L21.532,47.384 L23.764,43.781 C25.025,40.724 27.693,35.942 29.779,33.132 C31.817,30.371 36.037,26.181 39.093,23.864 C42.149,21.498 47.146,18.639 50.105,17.505 C53.113,16.371 58.255,15.04 61.505,14.596 C64.804,14.152 70.334,14.152 73.876,14.596 C77.368,15.04 82.656,16.322 85.664,17.455 C88.623,18.589 92.843,20.808 94.978,22.385 L98.956,25.343 L105.747,23.667 L112.587,21.991 L110.404,19.624 C109.191,18.343 105.019,15.138 101.139,12.476 C96.967,9.617 91.048,6.708 86.585,5.279 C82.462,3.948 75.864,2.666 71.838,2.37 z" fill="#FFB200"/>
        <path d="M115.546,25.442 C115.255,25.491 112.393,26.23 109.191,27.068 C105.99,27.907 103.225,28.695 103.079,28.794 C102.934,28.942 104.534,31.604 106.717,34.71 C108.852,37.865 111.52,42.893 112.684,45.95 C113.8,48.957 114.964,54.774 115.207,58.866 C115.498,62.908 115.255,68.676 114.625,71.683 C113.994,74.641 112.393,79.522 111.083,82.48 C109.725,85.438 107.057,89.776 105.214,92.093 C102.836,95.051 102.157,96.48 103.079,96.776 C103.758,97.023 106.717,97.91 109.677,98.748 L114.964,100.326 L116.711,98.058 C117.632,96.825 119.912,92.832 121.756,89.184 C123.551,85.536 125.831,79.127 126.704,74.986 C127.917,69.613 128.208,65.028 127.868,58.964 C127.577,54.33 126.413,47.577 125.297,44.076 C124.23,40.527 121.707,34.907 119.718,31.505 C117.729,28.104 115.886,25.392 115.546,25.442 z" fill="#FFB200"/>
        <path d="M98.713,32.491 C97.985,31.949 89.593,33.773 75.234,37.618 C62.961,40.971 43.217,46.245 31.38,49.401 L9.89,55.168 L8.726,58.028 C8.095,59.605 7.804,62.465 8.143,64.486 C8.434,66.458 9.065,68.43 9.453,68.824 C9.89,69.268 14.789,70.845 20.417,72.374 L30.604,75.184 L30.895,77.796 C31.186,80.064 32.059,80.705 37.153,82.48 C40.452,83.564 43.702,84.501 44.381,84.501 C45.06,84.501 45.642,83.416 45.642,82.036 C45.642,80.656 45.982,79.571 46.37,79.571 C46.758,79.522 58.74,82.529 72.954,86.226 L98.81,92.882 L100.896,90.959 C102.012,89.924 104.583,85.783 106.523,81.74 C109.677,75.233 110.113,73.409 110.453,65.422 C110.744,58.471 110.356,55.021 108.949,50.387 C107.882,47.084 105.456,41.907 103.467,38.9 C101.527,35.893 99.392,32.984 98.713,32.491 z" fill="#FFB200"/>
        <path d="M9.405,73.732 C9.162,73.732 9.55,74.986 10.278,77.796 C11.006,80.606 12.994,85.733 14.644,89.184 C16.293,92.635 19.786,98.058 22.406,101.213 C24.977,104.368 30.41,109.199 34.485,111.96 C38.948,115.016 44.915,117.974 49.814,119.552 C56.315,121.672 59.662,122.165 67.957,122.214 C76.35,122.214 79.551,121.77 86.1,119.601 C90.854,118.024 96.967,115.016 101.187,112.157 C105.068,109.495 109.046,106.488 109.968,105.403 L111.665,103.53 L105.99,101.903 C102.885,101.016 99.829,100.276 99.198,100.276 C98.616,100.276 95.996,101.607 93.474,103.283 C90.903,104.91 86.003,107.178 82.51,108.312 C78.436,109.643 73.487,110.333 68.442,110.382 C63.834,110.382 58.304,109.742 54.859,108.706 C51.658,107.77 46.709,105.65 43.847,103.974 C40.985,102.347 36.28,98.6 33.466,95.642 C30.604,92.684 26.917,87.607 25.316,84.304 C23.667,80.951 22.357,78.81 22.357,78.119 C22.357,77.479 19.543,76.197 16.099,75.309 C12.655,74.471 9.647,73.732 9.405,73.732 z" fill="#FFB200"/>
      </g>
    </g>
  </g>
</svg>
